<svg width="31" height="32" viewBox="0 0 31 32" fill="none" xmlns="http://www.w3.org/2000/svg">
<path d="M23.7454 7.99462C23.6277 7.87663 23.4878 7.78303 23.3339 7.71916C23.1799 7.65529 23.0148 7.62242 22.8482 7.62242C22.6815 7.62242 22.5164 7.65529 22.3625 7.71916C22.2085 7.78303 22.0686 7.87663 21.9509 7.99462L15.7272 14.2055L9.50361 7.98189C9.38578 7.86406 9.24589 7.77059 9.09194 7.70682C8.93798 7.64305 8.77298 7.61023 8.60634 7.61023C8.4397 7.61023 8.27469 7.64305 8.12074 7.70682C7.96678 7.77059 7.8269 7.86406 7.70906 7.98189C7.59123 8.09972 7.49776 8.23961 7.43399 8.39356C7.37022 8.54752 7.3374 8.71253 7.3374 8.87917C7.3374 9.0458 7.37022 9.21081 7.43399 9.36477C7.49776 9.51872 7.59123 9.65861 7.70906 9.77644L13.9327 16.0001L7.70906 22.2237C7.59123 22.3415 7.49776 22.4814 7.43399 22.6354C7.37022 22.7893 7.3374 22.9543 7.3374 23.121C7.3374 23.2876 7.37022 23.4526 7.43399 23.6066C7.49776 23.7605 7.59123 23.9004 7.70906 24.0183C7.8269 24.1361 7.96678 24.2296 8.12074 24.2933C8.27469 24.3571 8.4397 24.3899 8.60634 24.3899C8.77298 24.3899 8.93798 24.3571 9.09194 24.2933C9.24589 24.2296 9.38578 24.1361 9.50361 24.0183L15.7272 17.7946L21.9509 24.0183C22.0687 24.1361 22.2086 24.2296 22.3626 24.2933C22.5165 24.3571 22.6815 24.3899 22.8482 24.3899C23.0148 24.3899 23.1798 24.3571 23.3338 24.2933C23.4877 24.2296 23.6276 24.1361 23.7454 24.0183C23.8633 23.9004 23.9567 23.7605 24.0205 23.6066C24.0843 23.4526 24.1171 23.2876 24.1171 23.121C24.1171 22.9543 24.0843 22.7893 24.0205 22.6354C23.9567 22.4814 23.8633 22.3415 23.7454 22.2237L17.5218 16.0001L23.7454 9.77644C24.2291 9.2928 24.2291 8.47826 23.7454 7.99462Z" fill="#9E9E9E"/>
</svg>
