<svg width="16" height="17" viewBox="0 0 16 17" fill="none" xmlns="http://www.w3.org/2000/svg">
<path d="M8.18367 5.75003C7.92958 5.75003 7.72466 5.67216 7.56892 5.51643C7.41318 5.35249 7.33531 5.14347 7.33531 4.88938C7.33531 4.63528 7.41318 4.43036 7.56892 4.27462C7.72466 4.11888 7.92958 4.04102 8.18367 4.04102C8.42958 4.04102 8.63449 4.11888 8.79843 4.27462C8.96236 4.43036 9.04433 4.63528 9.04433 4.88938C9.04433 5.14347 8.96236 5.35249 8.79843 5.51643C8.63449 5.67216 8.42958 5.75003 8.18367 5.75003ZM6.53613 7.15167V6.80741H8.89679V12.0082C8.89679 12.2869 8.90908 12.4549 8.93367 12.5123C8.95826 12.5615 9.03613 12.5943 9.16728 12.6107L9.84351 12.6968V13.041H6.53613V12.6968L7.21236 12.6107C7.34351 12.5943 7.42138 12.5615 7.44597 12.5123C7.47056 12.4549 7.48285 12.2869 7.48285 12.0082V7.8402C7.48285 7.56151 7.47056 7.39757 7.44597 7.34839C7.42138 7.29102 7.34351 7.25413 7.21236 7.23774L6.53613 7.15167Z" fill="#ECECEE"/>
</svg>
