<svg width="24" height="24" viewBox="0 0 24 24" fill="none" xmlns="http://www.w3.org/2000/svg">
<path d="M12 2C7.83203 2 4.5 5.33203 4.5 9.5C4.5 10.9414 4.92969 12.0547 5.67578 13.1836L11.2109 21.582C11.3789 21.8359 11.668 22 12 22C12.332 22 12.625 21.832 12.7891 21.582L18.3242 13.1836C19.0703 12.0547 19.5 10.9414 19.5 9.5C19.5 5.33203 16.168 2 12 2ZM12 13.6641C9.69922 13.6641 7.83203 11.7969 7.83203 9.49219C7.83203 7.1875 9.69922 5.32031 12 5.32031C14.3008 5.32031 16.168 7.1875 16.168 9.49219C16.168 11.7969 14.3008 13.6641 12 13.6641Z" fill="#5B89F8"/>
</svg>
