<svg width="20" height="20" viewBox="0 0 20 20" fill="none" xmlns="http://www.w3.org/2000/svg">
<path d="M10.0001 0.800781C10.1655 0.800674 10.3276 0.846862 10.4681 0.934115C10.6086 1.02137 10.7218 1.14621 10.795 1.29449L13.0179 5.80051L17.9905 6.52336C18.154 6.54711 18.3077 6.61614 18.434 6.72264C18.5604 6.82914 18.6545 6.96886 18.7056 7.12601C18.7567 7.28317 18.7628 7.45149 18.7233 7.61195C18.6838 7.77241 18.6001 7.91861 18.4818 8.03403L14.8841 11.542L15.7334 16.4933C15.7609 16.6561 15.7424 16.8234 15.6801 16.9762C15.6177 17.1291 15.5139 17.2616 15.3804 17.3587C15.2468 17.4558 15.0888 17.5137 14.9241 17.5258C14.7595 17.538 14.5947 17.504 14.4483 17.4276L10.0001 15.0889L5.552 17.4276C5.40576 17.5043 5.24097 17.5387 5.07623 17.5268C4.91149 17.5149 4.75337 17.4571 4.61971 17.3601C4.48606 17.263 4.3822 17.1305 4.31986 16.9776C4.25752 16.8246 4.23919 16.6573 4.26693 16.4945L5.11735 11.5408L1.51726 8.03403C1.39863 7.91866 1.31469 7.77237 1.27495 7.61174C1.23521 7.45111 1.24125 7.28255 1.2924 7.12518C1.34355 6.96781 1.43775 6.82791 1.56433 6.72133C1.69092 6.61476 1.84482 6.54577 2.00861 6.52218L6.98117 5.80051L9.20524 1.29449C9.27845 1.14621 9.3917 1.02137 9.53218 0.934115C9.67267 0.846862 9.83477 0.800674 10.0001 0.800781Z" fill="#EFCD5D"/>
</svg>
