<svg width="32" height="32" viewBox="0 0 32 32" fill="none" xmlns="http://www.w3.org/2000/svg">
<path d="M15.9993 2.66667C8.63935 2.66667 2.66602 8.64 2.66602 16C2.66602 23.36 8.63935 29.3333 15.9993 29.3333C23.3594 29.3333 29.3327 23.36 29.3327 16C29.3327 8.64 23.3594 2.66667 15.9993 2.66667ZM22.186 11.7333C21.986 13.84 21.1194 18.96 20.6793 21.32C20.4927 22.32 20.1193 22.6533 19.7727 22.6933C18.9993 22.76 18.4127 22.1867 17.666 21.6933C16.4927 20.92 15.826 20.44 14.6927 19.6933C13.3727 18.8267 14.226 18.3467 14.986 17.5733C15.186 17.3733 18.5993 14.2667 18.666 13.9867C18.6753 13.9443 18.674 13.9002 18.6624 13.8584C18.6508 13.8166 18.6292 13.7782 18.5993 13.7467C18.5193 13.68 18.4127 13.7067 18.3193 13.72C18.1993 13.7467 16.3327 14.9867 12.6927 17.44C12.1593 17.8 11.6793 17.9867 11.2527 17.9733C10.7727 17.96 9.86602 17.7067 9.18602 17.48C8.34602 17.2133 7.69268 17.0667 7.74602 16.6C7.77268 16.36 8.10602 16.12 8.73268 15.8667C12.626 14.1733 15.2127 13.0533 16.506 12.52C20.2127 10.9733 20.9727 10.7067 21.4794 10.7067C21.586 10.7067 21.8393 10.7333 21.9993 10.8667C22.1327 10.9733 22.1727 11.12 22.186 11.2267C22.1727 11.3067 22.1993 11.5467 22.186 11.7333Z" fill="#8F96A3"/>
</svg>
