<svg width="28" height="28" viewBox="0 0 28 28" fill="none" xmlns="http://www.w3.org/2000/svg">
<path fill-rule="evenodd" clip-rule="evenodd" d="M23.9206 4.06881C22.6263 2.77386 21.0886 1.7477 19.3961 1.04941C17.7036 0.351121 15.8896 -0.00550402 14.0588 6.42123e-05C6.375 6.42123e-05 0.12 6.22381 0.116875 13.8751C0.113446 16.3114 0.755657 18.7051 1.97813 20.8126L0 28.0001L7.39062 26.0707C9.43636 27.179 11.7264 27.7591 14.0531 27.7582H14.0588C21.7419 27.7582 27.9963 21.5338 28 13.8832C28.0047 12.0585 27.6464 10.2512 26.9461 8.56628C26.2457 6.88137 25.2173 5.35257 23.9206 4.06881ZM14.0588 25.4163H14.0537C11.9796 25.4169 9.94319 24.8619 8.15625 23.8088L7.73312 23.5588L3.3475 24.7038L4.51813 20.4482L4.2425 20.0107C3.08274 18.1746 2.46828 16.0468 2.47062 13.8751C2.47062 7.51694 7.67125 2.34381 14.0631 2.34381C17.1294 2.33834 20.0722 3.55102 22.2444 5.71514C24.4166 7.87926 25.6403 10.8176 25.6462 13.8838C25.6437 20.2426 20.4456 25.4163 14.0588 25.4163ZM20.4144 16.7794C20.0662 16.6057 18.3519 15.7669 18.0344 15.6513C17.7169 15.5357 17.4825 15.4776 17.2506 15.8251C17.0188 16.1726 16.3506 16.9501 16.1475 17.1844C15.9444 17.4188 15.7413 17.4444 15.3931 17.2707C15.045 17.0969 13.9219 16.7313 12.5913 15.5501C11.5556 14.6307 10.8569 13.4957 10.6538 13.1488C10.4506 12.8019 10.6319 12.6138 10.8062 12.4413C10.9631 12.2857 11.1544 12.0363 11.3287 11.8338C11.5031 11.6313 11.5612 11.4863 11.6769 11.2551C11.7925 11.0238 11.735 10.8213 11.6481 10.6482C11.5612 10.4751 10.8644 8.76819 10.5744 8.07381C10.2913 7.39756 10.0044 7.48944 9.79062 7.47882C9.5875 7.46882 9.35313 7.46632 9.1225 7.46632C8.94619 7.4709 8.77273 7.51179 8.61293 7.58642C8.45313 7.66105 8.31044 7.76782 8.19375 7.90006C7.87438 8.24757 6.97437 9.08756 6.97437 10.7926C6.97437 12.4976 8.22438 14.1476 8.39688 14.3788C8.56938 14.6101 10.8531 18.1119 14.3475 19.6138C14.9964 19.8917 15.6594 20.1354 16.3337 20.3438C17.1681 20.6076 17.9275 20.5707 18.5275 20.4813C19.1969 20.3819 20.59 19.6426 20.8794 18.8326C21.1688 18.0226 21.1694 17.3288 21.0825 17.1844C20.9956 17.0401 20.7631 16.9526 20.4144 16.7794Z" fill="#C4C8CF"/>
</svg>
