<svg width="208" height="69" viewBox="0 0 208 69" fill="none" xmlns="http://www.w3.org/2000/svg">
<path d="M98.0053 19.2444C98.2079 19.2849 98.37 19.2849 98.5725 19.2849C99.1802 19.2849 99.6664 19.0823 99.95 18.7177C100.234 18.3125 100.396 17.8669 100.396 17.2997C100.396 16.7325 100.234 16.2868 99.9095 15.8817C99.5854 15.517 99.0992 15.3145 98.4105 15.3145C98.2889 15.3145 98.1269 15.3145 97.8838 15.355C97.9243 15.9222 97.9243 16.5299 97.9243 17.1781C98.0053 17.8669 98.0053 18.5556 98.0053 19.2444Z" fill="white" fill-opacity="0.8"/>
<path d="M177.535 39.7038C176.806 40.1495 176.481 40.8382 176.481 41.7701C176.481 42.4993 176.684 43.0665 177.13 43.4312C177.575 43.7958 178.183 43.9984 178.993 43.9984C180.249 43.9984 181.262 43.6337 181.951 42.945C182.68 42.2562 183.045 41.2839 183.045 40.0279V38.8125L181.019 38.8935C179.398 39.0151 178.224 39.2582 177.535 39.7038Z" fill="white" fill-opacity="0.8"/>
<path d="M112.347 17.2201C113.4 17.2201 113.927 16.896 113.927 16.2072C113.927 15.5995 113.522 15.2754 112.712 15.2754C112.509 15.2754 112.266 15.3159 112.063 15.3564C112.104 15.8831 112.104 16.5313 112.104 17.2201C112.185 17.2201 112.266 17.2201 112.347 17.2201Z" fill="white" fill-opacity="0.8"/>
<path d="M117.573 17.2201C118.627 17.2201 119.153 16.896 119.153 16.2072C119.153 15.5995 118.748 15.2754 117.897 15.2754C117.695 15.2754 117.492 15.3159 117.249 15.3564C117.29 15.8831 117.29 16.5313 117.29 17.2201C117.371 17.2201 117.492 17.2201 117.573 17.2201Z" fill="white" fill-opacity="0.8"/>
<path d="M126.081 19.3659C126.486 19.3659 126.851 19.1633 127.175 18.7987C127.459 18.3936 127.621 17.9479 127.621 17.3807C127.621 16.773 127.459 16.2868 127.175 15.8817C126.851 15.517 126.486 15.3145 126.041 15.3145C125.635 15.3145 125.271 15.517 124.947 15.8817C124.663 16.2463 124.501 16.7325 124.501 17.2997C124.501 17.9074 124.663 18.3936 124.987 18.7582C125.271 19.1633 125.635 19.3659 126.081 19.3659Z" fill="white" fill-opacity="0.8"/>
<path d="M107.242 15.2754H107.161C107.161 15.3969 106.918 16.2072 106.392 17.7063H107.972C107.485 16.2072 107.242 15.3969 107.242 15.2754Z" fill="white" fill-opacity="0.8"/>
<path d="M66.1203 15.2754H66.0393C66.0393 15.3969 65.7962 16.2072 65.2695 17.7063H66.8496C66.3634 16.2072 66.1203 15.3969 66.1203 15.2754Z" fill="white" fill-opacity="0.8"/>
<path d="M83.865 15.2754C83.5814 15.2754 83.3383 15.2754 83.1357 15.3564C83.1763 15.8021 83.1763 16.3693 83.1763 17.0985C83.3383 17.0985 83.4599 17.0985 83.5814 17.0985C84.5132 17.0985 84.9589 16.7744 84.9589 16.1262C84.9589 15.5995 84.5943 15.2754 83.865 15.2754Z" fill="white" fill-opacity="0.8"/>
<path d="M120.247 33.2637C119.517 33.2637 118.748 33.6283 118.302 34.1955C117.816 34.8032 117.694 35.5325 117.694 36.2618C117.694 38.1254 118.788 41.245 121.179 41.245C121.867 41.245 122.637 40.9209 123.083 40.4753C123.731 39.827 123.772 38.9357 123.772 38.4496C123.772 36.3833 122.556 33.2637 120.247 33.2637Z" fill="white" fill-opacity="0.8"/>
<path d="M90.104 19.3659C90.5091 19.3659 90.8738 19.1633 91.1979 18.7987C91.4815 18.3936 91.6435 17.9479 91.6435 17.3807C91.6435 16.773 91.4815 16.2868 91.1574 15.8817C90.8332 15.517 90.4686 15.3145 90.0229 15.3145C89.6178 15.3145 89.2532 15.517 88.9291 15.8817C88.6455 16.2463 88.4834 16.7325 88.4834 17.2997C88.4834 17.9074 88.6455 18.3936 88.9696 18.7582C89.2937 19.1633 89.6583 19.3659 90.104 19.3659Z" fill="white" fill-opacity="0.8"/>
<path d="M91.239 32.7773C90.3072 32.7773 89.4159 33.142 88.7271 33.7092C87.6332 34.6815 87.4307 35.8969 87.4307 37.1124C87.4307 39.8674 88.8082 44.405 92.1709 44.405C93.2648 44.405 94.3587 43.8783 95.0069 42.987C95.6956 42.0957 95.8577 40.9613 95.8577 39.9079C95.8577 37.477 94.6828 32.7773 91.239 32.7773Z" fill="white" fill-opacity="0.8"/>
<path d="M121.625 45.7012C121.382 45.7012 119.883 45.7417 118.708 46.1468C118.1 46.3899 116.317 47.0382 116.317 49.0234C116.317 51.0086 118.262 52.4266 121.22 52.4266C123.894 52.4266 125.312 51.1301 125.312 49.388C125.312 47.97 124.38 47.2002 122.273 45.7012C122.03 45.7012 121.908 45.7012 121.625 45.7012Z" fill="white" fill-opacity="0.8"/>
<path d="M77.2212 19.2444C77.4237 19.2849 77.5858 19.2849 77.7884 19.2849C78.3961 19.2849 78.8823 19.0823 79.1659 18.7177C79.4495 18.3125 79.6115 17.8669 79.6115 17.2997C79.6115 16.7325 79.4495 16.2868 79.1253 15.8817C78.8012 15.517 78.3151 15.3145 77.6263 15.3145C77.5048 15.3145 77.3427 15.3145 77.0996 15.355C77.1401 15.9222 77.1401 16.5299 77.1401 17.1781C77.1401 17.8669 77.1806 18.5556 77.2212 19.2444Z" fill="white" fill-opacity="0.8"/>
<path d="M142.692 35.2497C142.692 34.1153 141.436 32.8594 139.937 32.8594C138.803 32.8594 136.736 33.7102 136.736 36.7488C136.736 37.235 136.777 37.7211 136.817 38.2073L141.882 36.0195C142.408 35.817 142.692 35.6549 142.692 35.2497Z" fill="white" fill-opacity="0.8"/>
<path d="M106.35 32.7773C105.419 32.7773 104.527 33.142 103.838 33.7092C102.745 34.6815 102.542 35.8969 102.542 37.1124C102.542 39.8674 103.919 44.405 107.282 44.405C108.376 44.405 109.47 43.8783 110.118 42.987C110.807 42.0957 110.969 40.9613 110.969 39.9079C110.969 37.477 109.794 32.7773 106.35 32.7773Z" fill="white" fill-opacity="0.8"/>
<path d="M161.41 33.5469C160.032 33.5469 159.06 33.9115 158.452 34.6813C157.845 35.4511 157.521 36.626 157.521 38.2871V38.7327C157.521 40.5964 157.845 41.9334 158.452 42.7437C159.06 43.554 160.073 43.9591 161.45 43.9591C162.625 43.9591 163.517 43.4729 164.165 42.5411C164.813 41.6093 165.137 40.3128 165.137 38.6922C165.137 37.0311 164.813 35.7347 164.165 34.8838C163.517 33.9925 162.585 33.5469 161.41 33.5469Z" fill="white" fill-opacity="0.8"/>
<path d="M198.481 0.689453H9.56156C4.49724 0.689453 0.405273 4.78141 0.405273 9.84573V59.314C0.405273 64.3783 4.49724 68.4703 9.56156 68.4703H198.481C203.545 68.4703 207.637 64.3783 207.637 59.314V9.84573C207.637 4.82193 203.545 0.689453 198.481 0.689453ZM130.052 14.5049H131.348C131.348 14.667 131.713 15.2747 132.442 16.3281C133.212 17.4625 133.658 18.2322 133.739 18.6374H133.82C133.739 17.9892 133.739 17.422 133.739 16.8953C133.739 16.1255 133.739 15.3152 133.658 14.4644H134.751C134.711 15.1937 134.711 16.085 134.711 17.1789C134.711 18.2728 134.711 19.2451 134.751 20.1364H133.698C133.698 20.0149 133.293 19.3666 132.483 18.2322C131.632 17.0168 131.186 16.2065 131.065 15.7609H130.984C131.065 16.4091 131.105 16.9763 131.105 17.503C131.105 18.2322 131.105 19.083 131.146 20.1364H130.092C130.133 19.2451 130.173 18.2322 130.173 17.1789C130.133 16.1255 130.092 15.2342 130.052 14.5049ZM124.096 15.2342C124.623 14.6264 125.312 14.3429 126.122 14.3429C126.892 14.3429 127.54 14.6265 128.067 15.1531C128.593 15.6798 128.836 16.3686 128.836 17.2194C128.836 18.1107 128.553 18.84 128.026 19.4477C127.459 20.0554 126.811 20.339 126 20.339C125.231 20.339 124.582 20.0554 124.056 19.5287C123.529 19.002 123.286 18.3133 123.286 17.4625C123.286 16.5711 123.529 15.8419 124.096 15.2342ZM116.155 14.5049H116.925C117.047 14.5049 117.249 14.5049 117.533 14.5049C117.857 14.5049 118.1 14.5049 118.343 14.5049C118.91 14.5049 119.356 14.6265 119.761 14.8695C120.126 15.1126 120.328 15.4773 120.328 16.0039C120.328 16.6927 120.085 17.2194 119.558 17.5435C119.032 17.8676 118.424 18.0297 117.654 18.0297C117.533 18.0297 117.411 18.0297 117.371 18.0297C117.371 18.5564 117.371 19.2856 117.411 20.1769H116.196C116.236 19.3261 116.236 18.3538 116.236 17.2194C116.196 16.166 116.196 15.2342 116.155 14.5049ZM110.929 14.5049H111.699C111.82 14.5049 112.023 14.5049 112.306 14.5049C112.59 14.5049 112.874 14.5049 113.117 14.5049C113.684 14.5049 114.13 14.6265 114.494 14.8695C114.859 15.1126 115.061 15.4773 115.061 16.0039C115.061 16.6927 114.818 17.2194 114.292 17.5435C113.765 17.8676 113.157 18.0297 112.387 18.0297C112.266 18.0297 112.144 18.0297 112.104 18.0297C112.104 18.5564 112.104 19.2856 112.144 20.1769H110.929C110.969 19.3261 110.969 18.3538 110.969 17.2194C110.969 16.166 110.969 15.2342 110.929 14.5049ZM105.5 17.3814C106.189 15.6393 106.513 14.667 106.513 14.5049H108.174C108.174 14.667 108.498 15.5988 109.106 17.3409C109.713 19.083 110.038 20.0149 110.038 20.1769H108.66C108.66 19.9744 108.539 19.4477 108.255 18.5564H106.229C105.946 19.4477 105.824 19.9744 105.824 20.1769H104.528C104.487 20.0554 104.811 19.1236 105.5 17.3814ZM96.8298 14.5049H97.5996C97.7212 14.5049 97.9237 14.5049 98.1668 14.5049C98.4099 14.5049 98.572 14.5049 98.653 14.5049C99.7064 14.5049 100.476 14.748 100.922 15.2747C101.408 15.8014 101.651 16.4091 101.651 17.1383C101.651 17.9486 101.367 18.6779 100.841 19.2856C100.314 19.8933 99.5848 20.2175 98.6125 20.2175C98.1668 20.2175 97.5996 20.2174 96.8298 20.1769C96.8704 19.2856 96.8704 18.3133 96.8704 17.2194C96.8704 16.1255 96.8704 15.2342 96.8298 14.5049ZM94.0749 14.5049H95.2903C95.2498 15.2342 95.2498 16.1255 95.2498 17.2194C95.2498 18.3133 95.2498 19.2856 95.2903 20.1769H94.0749C94.1154 19.2856 94.1154 18.2728 94.1154 17.2194C94.1154 16.1255 94.1154 15.2342 94.0749 14.5049ZM88.1192 15.2342C88.6459 14.6264 89.3347 14.3429 90.145 14.3429C90.9147 14.3429 91.563 14.6265 92.0896 15.1531C92.6163 15.6798 92.8594 16.3686 92.8594 17.2194C92.8594 18.1107 92.5758 18.84 92.0491 19.4477C91.5224 20.0554 90.8337 20.339 90.0234 20.339C89.2536 20.339 88.6054 20.0554 88.0787 19.5287C87.552 19.002 87.3089 18.3133 87.3089 17.4625C87.3089 16.5711 87.5925 15.8419 88.1192 15.2342ZM76.0054 14.5049H76.7752C76.8967 14.5049 77.0993 14.5049 77.3424 14.5049C77.5854 14.5049 77.7475 14.5049 77.8285 14.5049C78.8819 14.5049 79.6517 14.748 80.0973 15.2747C80.5835 15.8014 80.8266 16.4091 80.8266 17.1383C80.8266 17.9486 80.543 18.6779 80.0163 19.2856C79.4896 19.8933 78.7604 20.2175 77.788 20.2175C77.3424 20.2175 76.7752 20.2174 76.0054 20.1769C76.0459 19.2856 76.0459 18.3133 76.0459 17.2194C76.0459 16.1255 76.0459 15.2342 76.0054 14.5049ZM69.8066 14.5049H71.1031C71.1031 14.667 71.4677 15.2747 72.197 16.3281C72.9668 17.4625 73.4124 18.2322 73.4935 18.6374H73.5745C73.4935 17.9892 73.453 17.422 73.453 16.8953C73.453 16.1255 73.453 15.3152 73.4124 14.4644H74.5063C74.4658 15.1937 74.4253 16.085 74.4253 17.1789C74.4253 18.2728 74.4253 19.2451 74.5063 20.1364H73.4124C73.4124 20.0149 73.0073 19.3666 72.2375 18.2322C71.3867 17.0168 70.9411 16.2065 70.8195 15.7609H70.7385C70.8195 16.4091 70.86 16.9763 70.86 17.503C70.86 18.2322 70.9006 19.083 70.9411 20.1364H69.8877C69.9282 19.2451 69.9687 18.2322 69.9687 17.1789C69.8877 16.1255 69.8472 15.2342 69.8066 14.5049ZM64.3777 17.3814C65.0665 15.6393 65.3906 14.667 65.3906 14.5049H67.0517C67.0517 14.667 67.3758 15.5988 67.9835 17.3409C68.5912 19.083 68.9153 20.0149 68.9153 20.1769H67.5378C67.5378 19.9744 67.4163 19.4477 67.1327 18.5564H65.107C64.8234 19.4477 64.7018 19.9744 64.7018 20.1769H63.3648C63.3648 20.0554 63.689 19.1236 64.3777 17.3814ZM17.0567 14.4644C17.0973 14.4644 17.1783 14.4644 17.2188 14.4644H17.2593C17.2998 14.4644 17.3809 14.4644 17.4214 14.5049C17.5024 14.5454 17.6239 14.5454 17.705 14.5859C17.7455 14.5859 17.786 14.6264 17.8265 14.6264L17.9481 14.7075C18.2317 14.8695 19.9738 15.8824 22.2021 17.1789L22.9313 17.584C23.5391 17.9486 24.1873 18.3133 24.876 18.7184L25.6863 19.2046C25.9699 19.3667 26.213 19.5287 26.4966 19.6908L27.3069 20.1769L28.1172 20.6631C28.4008 20.8252 28.6439 20.9872 28.9275 21.1088L30.1024 21.7975C30.224 21.8785 30.3455 21.9596 30.5076 22.0406L31.2368 22.4863C33.9108 24.0258 35.9365 25.2007 35.9365 25.2007L44.2015 29.9815L39.0966 35.0863L38.2458 35.9371L16.7326 14.5859C16.8542 14.5049 16.9352 14.4644 17.0567 14.4644ZM15.9629 36.7069C15.9629 36.7069 15.9629 17.7461 15.9629 15.7203C15.9629 15.6393 15.9629 15.5583 15.9629 15.4773L37.3545 36.7069L15.9629 57.9365C15.9629 55.7487 15.9629 36.7069 15.9629 36.7069ZM35.977 48.2535C35.977 48.2535 33.9108 49.4689 31.1558 51.049C30.9127 51.1706 30.6696 51.3326 30.4265 51.4542C29.6162 51.8998 28.7654 52.386 27.9146 52.9127C26.9423 53.4799 25.9294 54.0471 24.9571 54.6143C24.8355 54.6953 24.6735 54.7764 24.5519 54.8574C24.2683 55.0194 23.9847 55.1815 23.7416 55.3435C23.3365 55.5866 22.9314 55.7892 22.5667 56.0323C22.3236 56.1943 22.0805 56.3159 21.8375 56.478C21.5944 56.64 21.3513 56.7616 21.1082 56.8831C20.7436 57.0857 20.4195 57.2882 20.1358 57.4503C20.0548 57.4908 19.9333 57.5718 19.8522 57.6124C19.6497 57.7339 19.4876 57.8149 19.285 57.9365C19.1635 58.0175 19.042 58.058 18.9609 58.139C18.9609 58.139 18.9204 58.1796 18.8799 58.1796C18.7584 58.2201 18.6773 58.3011 18.5558 58.3416C18.4748 58.3821 18.3532 58.4632 18.2722 58.5037C18.2317 58.5442 18.1911 58.5442 18.1506 58.5847C18.1101 58.6252 18.0696 58.6252 18.0291 58.6657C17.9481 58.7062 17.867 58.7468 17.8265 58.7873C17.7455 58.8278 17.705 58.8683 17.6645 58.8683C17.6239 58.9088 17.5834 58.9088 17.5429 58.9493C17.1783 59.1519 16.8137 59.233 16.5301 59.1114L38.2458 37.5982L39.0966 38.449L44.2015 43.5133L35.977 48.2535ZM54.3301 37.6792C53.8034 38.0033 51.6967 39.1782 49.6709 40.3532C49.4684 40.4747 49.2658 40.5963 49.0632 40.7178C48.0504 41.285 47.1185 41.8522 46.4298 42.2574C45.7815 42.622 45.3359 42.9056 45.3359 42.9056L39.988 37.5982L39.1372 36.7474L39.988 35.8966L45.3359 30.5892C45.3359 30.5892 45.3764 30.5892 45.4169 30.6297L45.66 30.7512C45.741 30.7918 45.7815 30.8323 45.9031 30.8728C45.9841 30.9538 46.1057 30.9943 46.2272 31.0753C46.3082 31.1159 46.3487 31.1564 46.4298 31.1969L46.4703 31.2374C46.5918 31.3184 46.7134 31.3589 46.8349 31.44C46.8754 31.4805 46.9565 31.521 46.997 31.5615C47.1185 31.6426 47.2806 31.7236 47.4426 31.8046L47.8883 32.0882L48.415 32.3718C48.7391 32.5339 49.0632 32.7364 49.3873 32.939L50.1571 33.3847C50.3597 33.5062 50.6028 33.6278 50.8053 33.7493C50.8864 33.7898 51.0079 33.8709 51.0889 33.9114L51.7777 34.3165C51.9803 34.4381 52.1828 34.5596 52.3854 34.6811C52.4664 34.7216 52.5475 34.7622 52.588 34.8027L52.7906 34.9242L52.9931 35.0458C53.0742 35.0863 53.1957 35.1673 53.2767 35.2078L53.5198 35.3294L53.7224 35.4509L53.8844 35.5319L53.9655 35.5725L54.006 35.613L54.0465 35.6535L54.1275 35.694L54.2086 35.7345L54.2896 35.775L54.3706 35.8156C54.4111 35.8561 54.4922 35.8966 54.5327 35.8966C55.2619 36.3422 55.3025 37.112 54.3301 37.6792ZM82.9334 39.6239C82.7308 39.786 82.6903 39.867 82.6498 40.0696C82.6092 40.3127 82.6092 41.123 82.6092 41.4066V44.8098L78.5983 45.7416C76.9777 45.9847 75.5192 46.2278 73.9797 46.2278C66.2414 46.2278 63.2838 40.5152 63.2838 36.0586C63.2838 30.6297 67.4568 25.5654 74.6279 25.5654C76.1269 25.5654 77.5854 25.7679 78.9224 26.1731C81.0292 26.7808 82.0015 27.4696 82.6092 27.9152L80.2999 30.1435L79.3276 30.3461L80.0163 29.2117C79.044 28.2798 77.3018 26.5782 74.0202 26.5782C69.6041 26.5782 66.2414 29.9409 66.2414 34.8432C66.2414 40.1101 70.0497 45.0529 76.1674 45.0529C77.9501 45.0529 78.8819 44.6882 79.7327 44.3641V39.867L75.5192 40.0696L77.7475 38.8541H83.7031L82.9334 39.6239ZM83.6626 17.9081C83.5006 17.9081 83.3385 17.9081 83.1764 17.9081C83.1764 18.6374 83.1764 19.4072 83.217 20.1769H82.0015C82.042 19.2856 82.042 18.3133 82.042 17.2194C82.042 16.166 82.042 15.2747 82.0015 14.5049H82.7713C82.8523 14.5049 83.0549 14.5049 83.3385 14.5049C83.6221 14.5049 83.8652 14.5049 84.1083 14.5049C85.4453 14.5049 86.0935 14.9506 86.0935 15.8824C86.0935 16.6117 85.7289 17.0978 84.9591 17.3814V17.4625C85.2427 17.5435 85.5263 17.7866 85.7289 18.1512C85.9314 18.5158 86.2555 19.2046 86.6202 20.2175H85.3237C84.9996 19.2046 84.716 18.5564 84.5539 18.3133C84.3514 18.0297 84.0678 17.9081 83.6626 17.9081ZM91.563 45.2959C87.1064 45.2959 84.7565 41.8522 84.7565 38.7326C84.7565 35.0863 87.7546 31.9667 91.9681 31.9667C96.0601 31.9667 98.6125 35.1673 98.6125 38.53C98.6125 41.8117 96.1006 45.2959 91.563 45.2959ZM106.675 45.2959C102.259 45.2959 99.8684 41.8522 99.8684 38.7326C99.8684 35.0863 102.867 31.9667 107.08 31.9667C111.172 31.9667 113.724 35.1673 113.724 38.53C113.724 41.8117 111.212 45.2959 106.675 45.2959ZM126.203 37.112C126.203 39.1782 125.028 40.1506 123.853 41.0824C123.488 41.4471 123.083 41.8522 123.083 42.4599C123.083 43.0676 123.488 43.3918 123.813 43.6754L124.825 44.4451C126.041 45.458 127.175 46.4303 127.175 48.3345C127.175 50.968 124.623 53.6014 119.842 53.6014C115.791 53.6014 113.846 51.6567 113.846 49.5905C113.846 48.5776 114.332 47.1596 115.993 46.1873C117.735 45.1339 120.085 44.9718 121.341 44.8908C120.936 44.4046 120.49 43.8779 120.49 42.9866C120.49 42.5004 120.612 42.2169 120.774 41.8927C120.45 41.9332 120.166 41.9332 119.883 41.9332C116.925 41.9332 115.264 39.7049 115.264 37.5577C115.264 36.2612 115.872 34.8432 117.047 33.8303C118.627 32.5339 120.531 32.2908 122.03 32.2908H127.783L126 33.3036H124.258C124.866 33.8709 126.203 34.9647 126.203 37.112ZM133.495 44.8098H128.553C129.201 43.959 129.322 43.8779 129.322 43.3107V26.011H127.175L129.282 24.9982H133.293C132.402 25.4843 132.159 25.6869 132.037 26.6593C132.037 26.6998 132.037 26.7808 132.037 26.8213V42.703C132.037 43.7969 132.24 43.959 133.171 44.04C133.658 44.0805 134.103 44.121 134.589 44.1615L133.495 44.8098ZM144.515 44.2831C144.191 44.4451 143.908 44.6477 143.584 44.7693C142.652 45.1744 141.72 45.2959 140.869 45.2959C139.978 45.2959 138.6 45.2554 137.182 44.202C135.197 42.8245 134.346 40.3937 134.346 38.3274C134.346 33.9924 137.871 31.8856 140.707 31.8856C141.72 31.8856 142.733 32.1287 143.584 32.6554C144.961 33.5872 145.326 34.7622 145.528 35.4104L139.005 38.0439L136.858 38.2059C137.547 41.7307 139.937 43.7969 142.611 43.7969C144.029 43.7969 145.042 43.3107 146.014 42.8246L144.515 44.2831ZM147.797 32.1287H147.189V33.9519H146.946V32.1287H146.339V31.9261H147.797V32.1287ZM149.904 33.9519H149.701V32.0882L149.134 33.9519H148.972L148.405 32.0882V33.9519H148.202V31.9261H148.567L149.094 33.5467L149.58 31.9261H149.944V33.9519H149.904ZM165.786 43.8779C164.813 45.0934 163.436 45.7011 161.694 45.7011C160.802 45.7011 160.033 45.539 159.303 45.2149C158.574 44.8908 157.966 44.4046 157.48 43.7159H157.359C157.44 44.4857 157.521 45.2554 157.521 45.9442V51.4542H155.495V32.1287H157.156L157.44 33.9519H157.521C158.047 33.2226 158.655 32.6959 159.344 32.3718C160.033 32.0477 160.843 31.8856 161.734 31.8856C163.517 31.8856 164.854 32.4934 165.826 33.7088C166.798 34.9242 167.285 36.6258 167.285 38.8136C167.244 40.9609 166.758 42.6625 165.786 43.8779ZM171.903 45.4175H169.878V26.4567H171.903V45.4175ZM185.03 45.4175H183.531L183.126 43.5133H183.045C182.397 44.3641 181.708 44.9313 181.06 45.2149C180.411 45.4985 179.561 45.6606 178.588 45.6606C177.251 45.6606 176.238 45.3365 175.469 44.6477C174.699 43.959 174.334 42.9866 174.334 41.7307C174.334 39.0567 176.481 37.6387 180.816 37.4766L183.085 37.3956V36.5853C183.085 35.5319 182.842 34.7622 182.397 34.276C181.951 33.7898 181.222 33.5062 180.249 33.5062C179.115 33.5062 177.859 33.8303 176.481 34.5191L175.874 32.9795C176.522 32.6149 177.251 32.3313 178.021 32.1287C178.791 31.9261 179.601 31.8046 180.371 31.8046C181.951 31.8046 183.126 32.1692 183.896 32.858C184.665 33.5872 185.03 34.6811 185.03 36.2612V45.4175ZM193.011 47.2812C192.444 48.7802 191.796 49.8336 191.026 50.4818C190.256 51.13 189.325 51.4136 188.231 51.4136C187.623 51.4136 187.015 51.3326 186.407 51.2111V49.5905C186.853 49.6715 187.339 49.7525 187.907 49.7525C189.284 49.7525 190.297 48.9828 190.864 47.4027L191.593 45.4985L186.205 32.0882H188.393L191.31 39.7049C191.958 41.4471 192.363 42.703 192.525 43.4728H192.606C192.728 43.0676 192.93 42.3384 193.254 41.366C193.579 40.3532 194.713 37.2741 196.577 32.1287H198.724L193.011 47.2812Z" fill="white" fill-opacity="0.8"/>
</svg>
