<?xml version="1.0" encoding="utf-8"?>
<svg viewBox="0 0 32 32" xmlns="http://www.w3.org/2000/symbol" xmlns:xlink="http://www.w3.org/1999/xlink">
<symbol id="ru" width="24" height="25" viewBox="0 0 24 25" fill="none" >
<rect x="2.17857" y="5.53575" width="19.6429" height="13.9286" rx="1.25" fill="white" stroke="#F5F5F5" stroke-width="0.357143"/>
<mask id="mask0_7355_1224" style="mask-type:luminance" maskUnits="userSpaceOnUse" x="2" y="5" width="20" height="15">
<rect x="2.17857" y="5.53575" width="19.6429" height="13.9286" rx="1.25" fill="white" stroke="white" stroke-width="0.357143"/>
</mask>
<g mask="url(#mask0_7355_1224)">
<path fill-rule="evenodd" clip-rule="evenodd" d="M2 14.881H22V10.1191H2V14.881Z" fill="#0C47B7"/>
<path fill-rule="evenodd" clip-rule="evenodd" d="M2 19.6429H22V14.881H2V19.6429Z" fill="#E53B35"/>
</g>
</symbol>
<symbol id="arm" width="24" height="25" viewBox="0 0 24 25" fill="none" >
<rect x="2" y="5.35718" width="20" height="14.2857" rx="2" fill="white"/>
<mask id="mask0_7389_17260" style="mask-type:luminance" maskUnits="userSpaceOnUse" x="2" y="5" width="20" height="15">
<rect x="2" y="5.35718" width="20" height="14.2857" rx="2" fill="white"/>
</mask>
<g mask="url(#mask0_7389_17260)">
<path fill-rule="evenodd" clip-rule="evenodd" d="M2 14.881H22V10.1191H2V14.881Z" fill="#1047B9"/>
<path fill-rule="evenodd" clip-rule="evenodd" d="M2 10.1191H22V5.35718H2V10.1191Z" fill="#F01C31"/>
<path fill-rule="evenodd" clip-rule="evenodd" d="M2 19.6429H22V14.881H2V19.6429Z" fill="#FECB2F"/>
</g>
</symbol>
<symbol id="be" width="24" height="25" viewBox="0 0 24 25" fill="none" >
<rect x="2" y="5.35718" width="20" height="14.2857" rx="2" fill="white"/>
<mask id="mask0_7389_33607" style="mask-type:luminance" maskUnits="userSpaceOnUse" x="2" y="5" width="20" height="15">
<rect x="2" y="5.35718" width="20" height="14.2857" rx="2" fill="white"/>
</mask>
<g mask="url(#mask0_7389_33607)">
<path fill-rule="evenodd" clip-rule="evenodd" d="M2 14.881H22V5.35718H2V14.881Z" fill="#E54252"/>
<path fill-rule="evenodd" clip-rule="evenodd" d="M2 19.6429H22V14.881H2V19.6429Z" fill="#5CBE6B"/>
<path d="M4.85742 7.49878L4.38086 8.2146L4.85742 8.92944V10.3562L4.38086 11.071L4.85742 11.7859V13.2126L4.38086 13.9285L4.85742 14.6433V16.0701L4.38086 16.7859L4.85742 17.5007V19.6433H2V5.35718H4.85742V7.49878Z" fill="white"/>
<path d="M2.47656 16.7858L1.52441 18.2145L0.572266 16.7858L1.52441 15.3571L2.47656 16.7858ZM2.47656 13.9283L1.52441 15.3571L0.572266 13.9283L1.52441 12.4996L2.47656 13.9283ZM2.47656 11.0719L1.52441 12.4996L0.572266 11.0719L1.52441 9.64319L2.47656 11.0719ZM2.47656 8.21448L1.52441 9.64319L0.572266 8.21448L1.52441 6.78577L2.47656 8.21448Z" fill="#E54252"/>
<path d="M4.38086 18.2146L3.42871 19.6433L2.47656 18.2146L3.42871 16.7859L4.38086 18.2146ZM4.38086 15.3572L3.42871 16.7859L2.47656 15.3572L3.42871 13.9285L4.38086 15.3572ZM4.38086 12.4998L3.42871 13.9285L2.47656 12.4998L3.42871 11.071L4.38086 12.4998ZM4.38086 9.64331L3.42871 11.071L2.47656 9.64331L3.42871 8.2146L4.38086 9.64331ZM4.38086 6.78589L3.42871 8.2146L2.47656 6.78589L3.42871 5.35718L4.38086 6.78589Z" fill="#E54252"/>
</g>
</symbol>
<symbol id='es' width="24" height="25" viewBox="0 0 24 25" fill="none" >
<rect x="2" y="5.35718" width="20" height="14.2857" rx="2" fill="white"/>
<mask id="mask0_7389_15711" style="mask-type:luminance" maskUnits="userSpaceOnUse" x="2" y="5" width="20" height="15">
<rect x="2" y="5.35718" width="20" height="14.2857" rx="2" fill="white"/>
</mask>
<g mask="url(#mask0_7389_15711)">
<path fill-rule="evenodd" clip-rule="evenodd" d="M2 9.1667H22V5.35718H2V9.1667Z" fill="#DD172C"/>
<path fill-rule="evenodd" clip-rule="evenodd" d="M2 19.6429H22V15.8334H2V19.6429Z" fill="#DD172C"/>
<path fill-rule="evenodd" clip-rule="evenodd" d="M2 15.8334H22V9.16669H2V15.8334Z" fill="#FFD133"/>
<path fill-rule="evenodd" clip-rule="evenodd" d="M7.23828 12.0239H8.19066V12.5H7.23828V12.0239Z" fill="#FFEDB1"/>
<path d="M6.77148 11.8807H7.70312C7.89814 11.8807 8.05135 12.0477 8.03516 12.242L7.93652 13.4276C7.90622 13.7912 7.60226 14.0711 7.2373 14.0711C6.87237 14.0711 6.56839 13.7912 6.53809 13.4276L6.43945 12.242C6.42326 12.0477 6.57647 11.8807 6.77148 11.8807Z" stroke="#A41517" stroke-width="0.666667"/>
<path fill-rule="evenodd" clip-rule="evenodd" d="M6.28516 12.5001H8.18992V12.9763H7.71373L7.23754 13.9286L6.76135 12.9763H6.28516V12.5001Z" fill="#A41517"/>
<rect x="4.85742" y="11.0715" width="0.952381" height="3.33333" rx="0.47619" fill="#A41517"/>
<rect x="8.66602" y="11.0715" width="0.952381" height="3.33333" rx="0.476191" fill="#A41517"/>
<path d="M6.28516 10.881C6.28516 10.4602 6.62627 10.1191 7.04706 10.1191H7.42801C7.8488 10.1191 8.18992 10.4602 8.18992 10.881V10.881C8.18992 10.9862 8.10464 11.0715 7.99944 11.0715H6.47563C6.37044 11.0715 6.28516 10.9862 6.28516 10.881V10.881Z" fill="#A41517"/>
</g>
</symbol>

<symbol id='kz' width="24" height="25" viewBox="0 0 24 25" fill="none" >
<rect x="2" y="5.35718" width="20" height="14.2857" rx="2" fill="white"/>
<mask id="mask0_7389_17273" style="mask-type:luminance" maskUnits="userSpaceOnUse" x="2" y="5" width="20" height="15">
<rect x="2" y="5.35718" width="20" height="14.2857" rx="2" fill="white"/>
</mask>
<g mask="url(#mask0_7389_17273)">
<rect x="2" y="5.35718" width="20" height="14.2857" fill="#30C6E0"/>
<path fill-rule="evenodd" clip-rule="evenodd" d="M11.9997 15.3572C13.5777 15.3572 14.8569 14.078 14.8569 12.5C14.8569 10.9221 13.5777 9.64288 11.9997 9.64288C10.4218 9.64288 9.14258 10.9221 9.14258 12.5C9.14258 14.078 10.4218 15.3572 11.9997 15.3572Z" fill="#FFCD4B"/>
<path d="M13.4609 9.46649L15.2656 8.40497L14.6318 10.4011L16.7188 10.2272L15.2822 11.7507L17.2383 12.4997L15.2822 13.2497L16.7188 14.7731L14.6318 14.5993L15.2656 16.5954L13.4609 15.5339L13.165 17.6071L12 15.8669L10.834 17.6071L10.5391 15.5339L8.73438 16.5954L9.36719 14.5993L7.28027 14.7731L8.71777 13.2497L6.76172 12.4997L8.71777 11.7507L7.28027 10.2272L9.36719 10.4011L8.73438 8.40497L10.5391 9.46649L10.834 7.39325L12 9.13348L13.165 7.39325L13.4609 9.46649ZM12 9.16669C10.1592 9.16669 8.66619 10.6589 8.66602 12.4997C8.66602 14.3406 10.1591 15.8337 12 15.8337C13.8409 15.8336 15.333 14.3406 15.333 12.4997C15.3328 10.659 13.8408 9.16679 12 9.16669Z" fill="#FFCD4B"/>
<path d="M3.57227 17.7383C3.75626 17.7383 3.90517 17.8873 3.90527 18.0713V18.3574C3.90515 18.5414 3.75624 18.6904 3.57227 18.6904H3.28613C3.10226 18.6903 2.95325 18.5413 2.95312 18.3574V18.0713C2.95323 17.8874 3.10225 17.7385 3.28613 17.7383H3.57227ZM4.52441 16.7861C4.70851 16.7861 4.85742 16.935 4.85742 17.1191V17.4053C4.85717 17.5892 4.70835 17.7383 4.52441 17.7383H4.23926C4.05532 17.7383 3.90552 17.5892 3.90527 17.4053V17.1191C3.90527 16.935 4.05516 16.7861 4.23926 16.7861H4.52441ZM3.57227 15.833C3.75632 15.8331 3.90527 15.9829 3.90527 16.167V16.4521C3.90527 16.6362 3.75632 16.7861 3.57227 16.7861H3.28613C3.10219 16.786 2.95312 16.6361 2.95312 16.4521V16.167C2.95312 15.983 3.10219 15.8332 3.28613 15.833H3.57227ZM4.52441 14.8809C4.70835 14.8809 4.85717 15.03 4.85742 15.2139V15.5C4.85742 15.6841 4.70851 15.833 4.52441 15.833H4.23926C4.05516 15.833 3.90527 15.6841 3.90527 15.5V15.2139C3.90552 15.03 4.05532 14.8809 4.23926 14.8809H4.52441ZM3.57227 13.9287C3.75624 13.9288 3.90515 14.0778 3.90527 14.2617V14.5479C3.90517 14.7318 3.75626 14.8808 3.57227 14.8809H3.28613C3.10225 14.8807 2.95323 14.7318 2.95312 14.5479V14.2617C2.95325 14.0778 3.10227 13.9289 3.28613 13.9287H3.57227ZM4.52441 12.9766C4.70851 12.9766 4.85742 13.1255 4.85742 13.3096V13.5957C4.8572 13.7796 4.70837 13.9287 4.52441 13.9287H4.23926C4.0553 13.9287 3.9055 13.7796 3.90527 13.5957V13.3096C3.90527 13.1255 4.05516 12.9766 4.23926 12.9766H4.52441ZM3.57227 12.0234C3.75632 12.0235 3.90527 12.1734 3.90527 12.3574V12.6426C3.90527 12.8266 3.75632 12.9765 3.57227 12.9766H3.28613C3.10219 12.9764 2.95312 12.8266 2.95312 12.6426V12.3574C2.95312 12.1734 3.10219 12.0236 3.28613 12.0234H3.57227ZM4.52441 11.0713C4.70851 11.0713 4.85742 11.2212 4.85742 11.4053V11.6904C4.85742 11.8745 4.70851 12.0234 4.52441 12.0234H4.23926C4.05516 12.0234 3.90527 11.8745 3.90527 11.6904V11.4053C3.90527 11.2212 4.05516 11.0713 4.23926 11.0713H4.52441ZM3.57227 10.1191C3.75622 10.1192 3.90512 10.2682 3.90527 10.4521V10.7383C3.9052 10.9223 3.75627 11.0712 3.57227 11.0713H3.28613C3.10223 11.0711 2.9532 10.9222 2.95312 10.7383V10.4521C2.95328 10.2683 3.10228 10.1193 3.28613 10.1191H3.57227ZM4.52441 9.16699C4.70849 9.16699 4.8574 9.31593 4.85742 9.5V9.78613C4.85722 9.97006 4.70838 10.1191 4.52441 10.1191H4.23926C4.05529 10.1191 3.90547 9.97006 3.90527 9.78613V9.5C3.9053 9.31593 4.05518 9.16699 4.23926 9.16699H4.52441ZM3.57227 8.21387C3.75632 8.21392 3.90527 8.36379 3.90527 8.54785V8.83301C3.90527 9.01707 3.75632 9.16694 3.57227 9.16699H3.28613C3.10219 9.16682 2.95312 9.01699 2.95312 8.83301V8.54785C2.95312 8.36387 3.10219 8.21404 3.28613 8.21387H3.57227ZM4.52441 7.26172C4.70851 7.26172 4.85742 7.41161 4.85742 7.5957V7.88086C4.85742 8.06495 4.70851 8.21387 4.52441 8.21387H4.23926C4.05516 8.21387 3.90527 8.06495 3.90527 7.88086V7.5957C3.90527 7.41161 4.05516 7.26172 4.23926 7.26172H4.52441ZM3.57227 6.30957C3.75621 6.30962 3.9051 6.45866 3.90527 6.64258V6.92871C3.90522 7.11273 3.75629 7.26167 3.57227 7.26172H3.28613C3.10222 7.26154 2.95318 7.11265 2.95312 6.92871V6.64258C2.9533 6.45874 3.1023 6.30975 3.28613 6.30957H3.57227Z" fill="#FFCD4B"/>
</g>
</symbol>
<symbol id="cr" width="24" height="25" viewBox="0 0 24 25" fill="none" >
<rect x="2.25" y="5.60718" width="19.5" height="13.7857" rx="1.75" fill="white" stroke="#F5F5F5" stroke-width="0.5"/>
<mask id="mask0_7389_17304" style="mask-type:luminance" maskUnits="userSpaceOnUse" x="2" y="5" width="20" height="15">
<rect x="2.25" y="5.60718" width="19.5" height="13.7857" rx="1.75" fill="white" stroke="white" stroke-width="0.5"/>
</mask>
<g mask="url(#mask0_7389_17304)">
<path fill-rule="evenodd" clip-rule="evenodd" d="M2 8.21432H22V5.35718H2V8.21432Z" fill="#06358F"/>
<path fill-rule="evenodd" clip-rule="evenodd" d="M2 19.6429H22V16.7858H2V19.6429Z" fill="#06358F"/>
<path fill-rule="evenodd" clip-rule="evenodd" d="M2 14.881H22V10.1191H2V14.881Z" fill="#E61F37"/>
</g>
</symbol>

<symbol id="kg" width="24" height="25" viewBox="0 0 24 25" fill="none" >
<rect x="2" y="5.35718" width="20" height="14.2857" rx="2" fill="white"/>
<mask id="mask0_7389_22203" style="mask-type:luminance" maskUnits="userSpaceOnUse" x="2" y="5" width="20" height="15">
<rect x="2" y="5.35718" width="20" height="14.2857" rx="2" fill="white"/>
</mask>
<g mask="url(#mask0_7389_22203)">
<rect x="2" y="5.35718" width="20" height="14.2857" fill="#F22A46"/>
<path fill-rule="evenodd" clip-rule="evenodd" d="M12.0001 14.881C13.3151 14.881 14.381 13.8151 14.381 12.5001C14.381 11.1851 13.3151 10.1191 12.0001 10.1191C10.6851 10.1191 9.61914 11.1851 9.61914 12.5001C9.61914 13.8151 10.6851 14.881 12.0001 14.881Z" fill="#FFF04D"/>
<path d="M13.4609 9.46655L15.2656 8.40503L14.6318 10.4011L16.7188 10.2273L15.2822 11.7507L17.2383 12.4998L15.2822 13.2498L16.7188 14.7732L14.6318 14.5994L15.2656 16.5955L13.4609 15.5339L13.165 17.6072L12 15.8669L10.834 17.6072L10.5391 15.5339L8.73438 16.5955L9.36719 14.5994L7.28027 14.7732L8.71777 13.2498L6.76172 12.4998L8.71777 11.7507L7.28027 10.2273L9.36719 10.4011L8.73438 8.40503L10.5391 9.46655L10.834 7.39331L12 9.13354L13.165 7.39331L13.4609 9.46655ZM12 9.16675C10.1592 9.16675 8.66619 10.659 8.66602 12.4998C8.66602 14.3407 10.1591 15.8337 12 15.8337C13.8409 15.8336 15.333 14.3406 15.333 12.4998C15.3328 10.659 13.8408 9.16685 12 9.16675Z" fill="#FFF04D"/>
</g>
</symbol>


</svg>
