<svg width="25" height="24" viewBox="0 0 25 24" fill="none" xmlns="http://www.w3.org/2000/svg">
<path d="M12.5 2C8.33203 2 5 5.33203 5 9.5C5 10.9414 5.42969 12.0547 6.17578 13.1836L11.7109 21.582C11.8789 21.8359 12.168 22 12.5 22C12.832 22 13.125 21.832 13.2891 21.582L18.8242 13.1836C19.5703 12.0547 20 10.9414 20 9.5C20 5.33203 16.668 2 12.5 2ZM12.5 13.6641C10.1992 13.6641 8.33203 11.7969 8.33203 9.49219C8.33203 7.1875 10.1992 5.32031 12.5 5.32031C14.8008 5.32031 16.668 7.1875 16.668 9.49219C16.668 11.7969 14.8008 13.6641 12.5 13.6641Z" fill="#5E6573"/>
</svg>
