<svg width="24" height="25" viewBox="0 0 24 25" fill="none" xmlns="http://www.w3.org/2000/svg">
<path d="M11.999 4.25C17.9766 4.25 22.8231 9.20108 22.8232 15.3086L22.8086 15.8779C22.7393 17.2742 22.4124 18.6002 21.8818 19.8125V20.25H2.11719V19.8145C1.51447 18.4379 1.17578 16.9141 1.17578 15.3086C1.1759 9.20118 6.02156 4.25016 11.999 4.25ZM11.999 5.66211C6.82972 5.66227 2.58801 9.9521 2.58789 15.3086C2.58789 16.53 2.80977 17.6954 3.21191 18.7676H20.7871C21.1893 17.6954 21.4111 16.53 21.4111 15.3086C21.411 9.952 17.1685 5.66211 11.999 5.66211ZM9.63379 7.54395C10.0514 8.30406 10.4474 9.09776 10.8486 9.85938C11.2567 10.633 11.6645 11.4164 12.0732 12.2012C12.1246 12.1498 12.3285 11.7217 12.377 11.624L14.3975 7.65625C14.4494 7.55014 14.4369 7.57351 14.5596 7.57129L17.8213 15.9824L18.6348 15.9814V16.6611H13.9297L13.9258 15.9873L14.8643 15.9814L13.9297 13.3535C13.857 13.4429 13.0785 14.8614 12.999 15.0039L12.0752 16.6514L10.6436 14.1807C10.5594 14.0363 10.4881 13.9177 10.4062 13.7695L10.1592 13.3613L9.21777 15.9766L10.1602 15.9814L10.1582 16.6562L5.41211 16.6611V15.9805L6.27441 15.9814C6.50376 15.4669 6.87835 14.4616 7.1084 13.8809C7.38534 13.1833 7.68075 12.4723 7.94727 11.7666C8.21308 11.063 8.51952 10.3552 8.78906 9.65234C8.929 9.28615 9.07254 8.94061 9.20801 8.59375L9.63379 7.54395Z" fill="#0043CE"/>
</svg>
