<?xml version="1.0" encoding="utf-8"?><svg viewBox="0 0 32 32" xmlns="http://www.w3.org/2000/svg" xmlns:xlink="http://www.w3.org/1999/xlink"><style>:root>svg{display:none}:root>svg:target{display:block}</style><svg viewBox="0 0 24 24" id="arrow-narrow-right" xmlns="http://www.w3.org/2000/svg"><path d="M5 12h14m0 0-4 4m4-4-4-4"/></svg><svg viewBox="0 0 16 16" id="caret-down" xmlns="http://www.w3.org/2000/svg"><path d="m4 6.667 4 4 4-4H4Z"/></svg><svg viewBox="0 0 24 24" id="checkbox" xmlns="http://www.w3.org/2000/svg"><rect x="3" y="3" width="18" height="18" rx="2"/><path d="M8 11.75 10.454 14 17 8"/></svg><svg viewBox="0 0 17 16" id="chevron-down" xmlns="http://www.w3.org/2000/svg"><path d="m4.5 6 4 4 4-4"/></svg><svg viewBox="0 0 24 24" id="chevron-left" xmlns="http://www.w3.org/2000/svg"><path d="m15 6-6 6 6 6"/></svg><svg viewBox="0 0 31 32" id="close" xmlns="http://www.w3.org/2000/svg"><path d="M23.745 7.995a1.268 1.268 0 0 0-1.794 0l-6.224 6.21-6.223-6.223a1.269 1.269 0 0 0-1.795 1.794L13.933 16l-6.224 6.224a1.268 1.268 0 1 0 1.795 1.794l6.223-6.223 6.224 6.223a1.267 1.267 0 0 0 2.07-.411 1.269 1.269 0 0 0-.276-1.383L17.522 16l6.223-6.224a1.275 1.275 0 0 0 0-1.781Z"/></svg><svg viewBox="0 0 24 24" id="marker" xmlns="http://www.w3.org/2000/svg"><path d="M12 2a7.467 7.467 0 0 0-7.5 7.5c0 1.441.43 2.555 1.176 3.684l5.535 8.398A.939.939 0 0 0 12 22a.943.943 0 0 0 .79-.418l5.534-8.398C19.07 12.054 19.5 10.94 19.5 9.5 19.5 5.332 16.168 2 12 2Zm0 11.664a4.17 4.17 0 0 1-4.168-4.172A4.17 4.17 0 0 1 12 5.32a4.17 4.17 0 0 1 4.168 4.172A4.17 4.17 0 0 1 12 13.664Z"/></svg><svg viewBox="0 0 24 25" id="metro" xmlns="http://www.w3.org/2000/svg"><path d="M11.999 4.25c5.978 0 10.824 4.951 10.824 11.059l-.014.569a11.179 11.179 0 0 1-.927 3.934v.438H2.117v-.436a11.208 11.208 0 0 1-.941-4.505C1.176 9.2 6.022 4.25 11.999 4.25Zm0 1.412c-5.17 0-9.411 4.29-9.411 9.647a9.83 9.83 0 0 0 .624 3.459h17.575a9.828 9.828 0 0 0 .624-3.46c0-5.356-4.242-9.646-9.412-9.646ZM9.634 7.544c.417.76.813 1.554 1.215 2.315.408.774.816 1.557 1.224 2.342.052-.051.255-.48.304-.577l2.02-3.968c.052-.106.04-.082.163-.085l3.261 8.411h.814v.68H13.93l-.004-.675.938-.006-.934-2.627c-.073.089-.851 1.507-.931 1.65l-.924 1.647-1.431-2.47c-.085-.145-.156-.263-.238-.411l-.247-.409-.941 2.616.942.004-.002.675-4.746.005v-.68h.862c.23-.514.604-1.52.834-2.1.277-.698.573-1.409.84-2.114.265-.704.572-1.412.841-2.115.14-.366.284-.711.419-1.058l.426-1.05Z"/></svg><svg viewBox="0 0 24 24" id="parking" xmlns="http://www.w3.org/2000/svg"><path d="M19 3H5a2 2 0 0 0-2 2v14a2 2 0 0 0 2 2h14a2 2 0 0 0 2-2V5a2 2 0 0 0-2-2Z"/><path d="M9 17V7h4a3 3 0 0 1 0 6H9"/></svg><svg viewBox="0 0 24 25" id="phone" xmlns="http://www.w3.org/2000/svg"><path d="M15.5 1.488h-8a2.5 2.5 0 0 0-2.5 2.5v17a2.5 2.5 0 0 0 2.5 2.5h8a2.5 2.5 0 0 0 2.5-2.5v-17a2.5 2.5 0 0 0-2.5-2.5Zm-4 21c-.83 0-1.5-.67-1.5-1.5s.67-1.5 1.5-1.5 1.5.67 1.5 1.5-.67 1.5-1.5 1.5Zm4.5-4H7v-14h9v14Z"/></svg><svg viewBox="0 0 19 28" id="play" xmlns="http://www.w3.org/2000/svg"><path d="M18.186 14.223.422 27.718V.73l17.763 13.493Z"/></svg><svg viewBox="0 0 20 20" id="star" xmlns="http://www.w3.org/2000/svg"><path d="M10 .8a.886.886 0 0 1 .795.494l2.223 4.507 4.973.722a.886.886 0 0 1 .49 1.511l-3.597 3.508.85 4.951a.888.888 0 0 1-1.286.935L10 15.088l-4.448 2.34a.887.887 0 0 1-1.285-.934l.85-4.953-3.6-3.507a.886.886 0 0 1 .492-1.512l4.972-.721 2.224-4.507A.886.886 0 0 1 10 .801Z"/></svg><svg viewBox="0 0 24 24" id="user" xmlns="http://www.w3.org/2000/svg"><path d="M12 11.067A3.733 3.733 0 1 0 12 3.6a3.733 3.733 0 0 0 0 7.467ZM5 20.4v-.467A3.733 3.733 0 0 1 8.733 16.2h6.534A3.733 3.733 0 0 1 19 19.933v.467"/><path d="M15.733 7.333a3.733 3.733 0 1 1-7.466 0 3.733 3.733 0 0 1 7.466 0ZM5 20.4v-.467A3.733 3.733 0 0 1 8.733 16.2h6.534A3.733 3.733 0 0 1 19 19.933v.467H5Z"/></svg><svg viewBox="0 0 32 32" id="vk" xmlns="http://www.w3.org/2000/svg"><g clip-path="url(#na)"><path d="M31.938 8.372c.22-.743 0-1.29-1.058-1.29h-3.499c-.89 0-1.3.47-1.52.993 0 0-1.783 4.342-4.301 7.158-.814.814-1.188 1.075-1.634 1.075-.22 0-.558-.261-.558-1.004V8.372c0-.891-.25-1.29-.986-1.29H12.88c-.559 0-.891.416-.891.803 0 .843 1.259 1.04 1.39 3.415v5.157c0 1.128-.202 1.336-.648 1.336-1.188 0-4.075-4.36-5.786-9.35-.344-.968-.683-1.36-1.58-1.36H1.867c-.998 0-1.2.469-1.2.992 0 .926 1.188 5.53 5.53 11.613 2.894 4.153 6.969 6.404 10.676 6.404 2.227 0 2.5-.499 2.5-1.36 0-3.968-.201-4.343.915-4.343.517 0 1.408.262 3.488 2.264 2.376 2.376 2.768 3.44 4.098 3.44h3.5c.997 0 1.502-.5 1.211-1.486-.665-2.073-5.162-6.338-5.364-6.624-.517-.665-.368-.962 0-1.556.006-.006 4.277-6.018 4.717-8.055Z"/></g><defs><clipPath id="na"><path d="M0 0h32v32H0z"/></clipPath></defs></svg><svg viewBox="0 0 28 28" id="wa" xmlns="http://www.w3.org/2000/svg"><path fill-rule="evenodd" clip-rule="evenodd" d="M23.92 4.069A13.884 13.884 0 0 0 14.06 0C6.375 0 .12 6.224.117 13.875a13.788 13.788 0 0 0 1.861 6.938L0 28l7.39-1.93a13.975 13.975 0 0 0 6.663 1.688h.006c7.683 0 13.937-6.224 13.941-13.875a13.76 13.76 0 0 0-4.08-9.814Zm-9.86 21.347h-.005a11.62 11.62 0 0 1-5.898-1.607l-.423-.25-4.385 1.145 1.17-4.256-.276-.437a11.466 11.466 0 0 1-1.771-6.136c0-6.358 5.2-11.531 11.592-11.531a11.562 11.562 0 0 1 11.583 11.54c-.002 6.359-5.2 11.532-11.587 11.532Zm6.355-8.637c-.348-.173-2.062-1.012-2.38-1.128-.317-.115-.551-.173-.783.174-.232.348-.9 1.125-1.104 1.36-.203.234-.406.26-.754.086-.348-.174-1.471-.54-2.802-1.72-1.035-.92-1.734-2.055-1.937-2.402-.203-.347-.022-.535.152-.708.157-.155.348-.405.523-.607.174-.203.232-.348.348-.579.116-.231.058-.434-.029-.607-.087-.173-.784-1.88-1.074-2.574-.283-.676-.57-.585-.783-.595-.204-.01-.438-.013-.668-.013a1.283 1.283 0 0 0-.93.434c-.319.348-1.219 1.188-1.219 2.893 0 1.705 1.25 3.355 1.423 3.586.172.231 2.456 3.733 5.95 5.235.65.278 1.312.521 1.987.73.834.264 1.593.227 2.194.137.669-.1 2.062-.838 2.351-1.648.29-.81.29-1.504.203-1.649-.086-.144-.319-.231-.668-.405Z"/></svg></svg>