<svg width="24" height="25" viewBox="0 0 24 25" fill="none" xmlns="http://www.w3.org/2000/svg">
<path d="M8.9309 3.04843C6.90916 3.74982 5.16561 5.08108 3.95635 6.84668C2.7471 8.61228 2.13587 10.7191 2.21247 12.8578C2.28906 14.9965 3.04943 17.0542 4.38189 18.7288C5.71435 20.4033 7.54866 21.6065 9.6154 22.1614C11.291 22.5938 13.0464 22.6128 14.7309 22.2168C16.2569 21.874 17.6678 21.1407 18.8253 20.0889C20.03 18.9607 20.9044 17.5254 21.3546 15.9374C21.8439 14.2106 21.931 12.3946 21.6091 10.6288H12.2V14.532H17.6492C17.5402 15.1546 17.3069 15.7487 16.963 16.279C16.6191 16.8092 16.1718 17.2646 15.6478 17.6179C14.9824 18.0581 14.2323 18.3543 13.4457 18.4874C12.6568 18.6341 11.8476 18.6341 11.0587 18.4874C10.2591 18.3221 9.50269 17.9921 8.83764 17.5183C7.76923 16.762 6.96701 15.6875 6.54544 14.4482C6.11674 13.1857 6.11674 11.817 6.54544 10.5545C6.84552 9.66955 7.3416 8.8638 7.99664 8.19739C8.74625 7.42078 9.69528 6.86564 10.7396 6.59291C11.7839 6.32017 12.8832 6.34037 13.9168 6.65128C14.7243 6.89915 15.4626 7.33223 16.0731 7.916C16.6875 7.30472 17.3008 6.69186 17.9131 6.07742C18.2293 5.74701 18.5739 5.43241 18.8854 5.0941C17.9536 4.22694 16.8598 3.55219 15.6668 3.1085C13.4943 2.31962 11.1171 2.29842 8.9309 3.04843Z" fill="#ECECEE"/>
<path d="M8.92972 3.04822C11.1158 2.2977 13.4929 2.31834 15.6656 3.10671C16.8588 3.55341 17.9521 4.23142 18.8826 5.1018C18.5664 5.44011 18.2329 5.75629 17.9104 6.08511C17.297 6.69745 16.6842 7.30767 16.0719 7.91579C15.4614 7.33202 14.7231 6.89894 13.9156 6.65107C12.8824 6.33907 11.7831 6.31771 10.7385 6.58933C9.69392 6.86095 8.74431 7.41506 7.99387 8.19086C7.33883 8.85726 6.84276 9.66302 6.54267 10.548L3.26562 8.01064C4.43861 5.68445 6.46956 3.9051 8.92972 3.04822Z" fill="#E33629"/>
<path d="M2.39621 10.5244C2.57235 9.65138 2.86478 8.80597 3.26567 8.01074L6.54272 10.5544C6.11402 11.8169 6.11402 13.1856 6.54272 14.4481C5.45089 15.2913 4.35854 16.1386 3.26567 16.9902C2.26208 14.9925 1.95601 12.7163 2.39621 10.5244Z" fill="#F8BD00"/>
<path d="M12.2009 10.627H21.61C21.9318 12.3927 21.8447 14.2087 21.3555 15.9356C20.9053 17.5236 20.0308 18.9588 18.8261 20.087C17.7686 19.2618 16.7062 18.4429 15.6487 17.6177C16.173 17.264 16.6205 16.8081 16.9644 16.2773C17.3083 15.7465 17.5415 15.1517 17.65 14.5286H12.2009C12.1993 13.2291 12.2009 11.928 12.2009 10.627Z" fill="#587DBD"/>
<path d="M3.26367 16.9903C4.35655 16.1472 5.4489 15.2998 6.54072 14.4482C6.96313 15.688 7.7665 16.7625 8.83608 17.5183C9.5032 17.9899 10.2612 18.3172 11.0619 18.4795C11.8508 18.6262 12.66 18.6262 13.4489 18.4795C14.2355 18.3464 14.9856 18.0502 15.651 17.61C16.7086 18.4353 17.7709 19.2542 18.8285 20.0794C17.6711 21.1318 16.2603 21.8656 14.7341 22.2088C13.0496 22.6049 11.2941 22.5859 9.61859 22.1535C8.29338 21.7997 7.05556 21.1759 5.98269 20.3213C4.84712 19.4197 3.91964 18.2834 3.26367 16.9903Z" fill="#319F43"/>
</svg>
