<svg width="167" height="24" viewBox="0 0 167 24" fill="none" xmlns="http://www.w3.org/2000/svg">
<path fill-rule="evenodd" clip-rule="evenodd" d="M96.1433 3.18905C94.577 4.98557 93.7995 7.8806 93.7995 11.8741C93.7995 15.8448 94.577 18.7741 96.1433 20.6622C97.7322 22.5502 100.29 23.5 103.84 23.5C107.412 23.5 109.992 22.5388 111.57 20.6279C113.181 18.7169 113.981 15.7761 113.981 11.8055C113.981 7.81194 113.204 4.92836 111.638 3.15473C110.105 1.38109 107.525 0.5 103.907 0.5C100.313 0.5 97.7209 1.39254 96.1433 3.18905ZM103.907 6.66766C104.922 6.66766 105.586 6.97662 105.891 7.60597C106.195 8.20099 106.353 9.48259 106.353 11.4507V13.0985C106.353 15.0896 106.217 16.3597 105.958 16.9433C105.699 17.5154 105.045 17.8015 104.009 17.8015C102.972 17.8015 102.296 17.504 101.992 16.909C101.687 16.3139 101.53 15.0095 101.53 12.9955V11.405C101.53 9.44826 101.676 8.16667 101.958 7.5602C102.24 6.96517 102.893 6.66766 103.907 6.66766ZM33.0281 0.854726L28.4869 23.1338H20.0468L18.2325 14.094L16.6662 23.1338H8.22605L4.89055 8.05224L8.46269 6.70199H4.83421H1.20574L0 0.866169L10.2544 0.854726L12.3954 11.0846L14.9984 0.854726H21.7032L24.419 11.0846L26.3121 0.854726H33.0281ZM51.1592 23.1453H43.7107L43.0008 19.701H39.0681L38.3244 23.1453H31.1914L35.7664 0.854726H46.5842L51.1592 23.1453ZM42.4712 15.0667L41.0513 7.60597L39.5977 15.0667H42.4712ZM69.9439 11.4851C70.4172 10.6269 70.6538 9.47114 70.6538 8.0408C70.6538 5.5806 70.0003 3.77264 68.7044 2.62836C67.3972 1.44975 65.3689 0.854726 62.6306 0.854726L49.6267 0.866169L50.8325 6.70199H57.2105L53.2327 8.05224V23.1453H60.5009V15.4672H61.0643L63.2617 23.1453H71.1046L67.8029 13.705C68.7833 13.0642 69.4932 12.3204 69.9439 11.4851ZM62.3827 10.6154C62.1686 10.9244 61.7968 11.0846 61.2446 11.0846H60.3544V6.74776H61.2784C61.7742 6.74776 62.1461 6.90796 62.3827 7.21692C62.6194 7.52587 62.7321 8.08657 62.7321 8.899C62.7321 9.71144 62.6194 10.2836 62.3827 10.6154ZM84.3902 16.1766H82.869V23.1338H75.4204V8.02935L79.5109 6.70199H73.1329L71.9272 0.866169L83.9958 0.854726C84.2099 0.854726 84.4128 0.854726 84.6269 0.866169H84.7846C87.2975 0.969154 89.1455 1.56418 90.3513 2.6398C91.681 3.84129 92.3345 5.80945 92.3345 8.55572C92.3345 11.302 91.6922 13.2701 90.4189 14.4373C89.1456 15.6045 87.1397 16.1766 84.3902 16.1766ZM82.7225 6.72488H84.3451C84.5029 6.81642 84.6156 6.94229 84.7057 7.10249C84.9424 7.4801 85.0551 8.13234 85.0551 9.03632C85.0551 9.9403 84.9536 10.5925 84.7395 10.9701C84.548 11.3478 84.1874 11.5423 83.6352 11.5423H82.7112V6.72488H82.7225ZM123.717 23.1453H116.235V0.854726H123.717V6.9194H117.982L123.717 8.56716V23.1453ZM138.671 23.1453H146.57V8.05224L142.175 6.9194H151.833V23.1338H159.394V6.9194H164.521L166.921 0.854726H139.11V9.92886L134.716 0.854726H126.546V23.1338H133.949V14.3458L138.671 23.1453Z" fill="white"/>
</svg>
