<svg width="40" height="40" viewBox="0 0 40 40" fill="none" xmlns="http://www.w3.org/2000/svg">
<path fill-rule="evenodd" clip-rule="evenodd" d="M8.59733 5.17629H5.08642C4.1175 5.17629 3.33203 5.96176 3.33203 6.93068V35.0009C3.33203 35.9698 4.1175 36.7552 5.08642 36.7552H34.911C35.8799 36.7552 36.6654 35.9698 36.6654 35.0009V6.93068C36.6654 5.96176 35.8799 5.17629 34.911 5.17629L31.4043 5.1763C31.4043 7.11414 29.8334 8.68507 27.8956 8.68507C25.9577 8.68507 24.3868 7.11414 24.3868 5.1763L15.6149 5.17629C15.6149 7.11413 14.0439 8.68507 12.1061 8.68507C10.1683 8.68507 8.59733 7.11413 8.59733 5.17629ZM6.84194 12.0961C6.84194 11.181 7.5838 10.4392 8.49892 10.4392H31.5008C32.4159 10.4392 33.1577 11.181 33.1577 12.0961V31.5892C33.1577 32.5043 32.4159 33.2462 31.5008 33.2462H8.49893C7.5838 33.2462 6.84194 32.5043 6.84194 31.5892V12.0961Z" fill="#0554F8"/>
<path d="M10.3497 3.42138C10.3497 2.45246 11.1352 1.66699 12.1041 1.66699C13.073 1.66699 13.8585 2.45246 13.8585 3.42138V5.17577C13.8585 6.14469 13.073 6.93015 12.1041 6.93015C11.1352 6.93015 10.3497 6.14468 10.3497 5.17576V3.42138Z" fill="#0554F8"/>
<path d="M26.1402 3.42138C26.1402 2.45246 26.9257 1.66699 27.8946 1.66699C28.8635 1.66699 29.649 2.45246 29.649 3.42138V5.17577C29.649 6.14469 28.8635 6.93015 27.8946 6.93015C26.9257 6.93015 26.1402 6.14468 26.1402 5.17576V3.42138Z" fill="#0554F8"/>
<path d="M10.3503 14.8375C10.3503 14.3456 10.749 13.9469 11.2409 13.9469H13.913C14.4049 13.9469 14.8037 14.3456 14.8037 14.8375V17.5096C14.8037 18.0015 14.4049 18.4003 13.913 18.4003H11.2409C10.749 18.4003 10.3503 18.0015 10.3503 17.5096V14.8375Z" fill="#0554F8"/>
<path d="M10.3503 20.7753C10.3503 20.2834 10.749 19.8846 11.2409 19.8846H13.913C14.4049 19.8846 14.8037 20.2834 14.8037 20.7753V23.4474C14.8037 23.9393 14.4049 24.3381 13.913 24.3381H11.2409C10.749 24.3381 10.3503 23.9393 10.3503 23.4474V20.7753Z" fill="#0554F8"/>
<path d="M10.3503 26.7139C10.3503 26.222 10.749 25.8232 11.2409 25.8232H13.913C14.4049 25.8232 14.8037 26.222 14.8037 26.7139V29.386C14.8037 29.8779 14.4049 30.2767 13.913 30.2767H11.2409C10.749 30.2767 10.3503 29.8779 10.3503 29.386V26.7139Z" fill="#0554F8"/>
<path d="M17.7721 26.7136C17.7721 26.2217 18.1709 25.8229 18.6628 25.8229H21.3349C21.8268 25.8229 22.2256 26.2217 22.2256 26.7136V29.3857C22.2256 29.8776 21.8268 30.2764 21.3349 30.2764H18.6628C18.1709 30.2764 17.7721 29.8776 17.7721 29.3857V26.7136Z" fill="#0554F8"/>
<path d="M17.7721 20.7763C17.7721 20.2844 18.1709 19.8856 18.6628 19.8856H21.3349C21.8268 19.8856 22.2256 20.2844 22.2256 20.7763V23.4483C22.2256 23.9402 21.8268 24.339 21.3349 24.339H18.6628C18.1709 24.339 17.7721 23.9402 17.7721 23.4483V20.7763Z" fill="#0554F8"/>
<path d="M25.194 20.7763C25.194 20.2844 25.5928 19.8856 26.0847 19.8856H28.7568C29.2487 19.8856 29.6474 20.2844 29.6474 20.7763V23.4483C29.6474 23.9402 29.2487 24.339 28.7568 24.339H26.0847C25.5928 24.339 25.194 23.9402 25.194 23.4483V20.7763Z" fill="#0554F8"/>
<path d="M17.7721 14.8375C17.7721 14.3456 18.1709 13.9469 18.6628 13.9469H21.3349C21.8268 13.9469 22.2256 14.3456 22.2256 14.8375V17.5096C22.2256 18.0015 21.8268 18.4003 21.3349 18.4003H18.6628C18.1709 18.4003 17.7721 18.0015 17.7721 17.5096V14.8375Z" fill="#0554F8"/>
<path d="M25.194 14.8375C25.194 14.3456 25.5928 13.9469 26.0847 13.9469H28.7568C29.2487 13.9469 29.6474 14.3456 29.6474 14.8375V17.5096C29.6474 18.0015 29.2487 18.4003 28.7568 18.4003H26.0847C25.5928 18.4003 25.194 18.0015 25.194 17.5096V14.8375Z" fill="#0554F8"/>
</svg>
