<svg width="24" height="25" viewBox="0 0 24 25" fill="none" xmlns="http://www.w3.org/2000/svg">
<path d="M5.25 4.33398H18.75C19.5801 4.33393 20.3788 4.65154 20.9822 5.22166C21.5856 5.79177 21.948 6.57118 21.995 7.39998L22 7.58398V17.084C22.0001 17.9141 21.6824 18.7128 21.1123 19.3162C20.5422 19.9196 19.7628 20.282 18.934 20.329L18.75 20.334H5.25C4.41986 20.334 3.62117 20.0164 3.01777 19.4463C2.41437 18.8762 2.052 18.0968 2.005 17.268L2 17.084V7.58398C1.99995 6.75385 2.31755 5.95516 2.88767 5.35175C3.45779 4.74835 4.23719 4.38598 5.066 4.33898L5.25 4.33398ZM20.5 9.70698L12.35 13.997C12.258 14.0456 12.1568 14.0745 12.053 14.0819C11.9492 14.0893 11.845 14.075 11.747 14.04L11.651 13.998L3.5 9.70798V17.084C3.50002 17.5232 3.66517 17.9463 3.96268 18.2694C4.26019 18.5924 4.6683 18.7918 5.106 18.828L5.25 18.834H18.75C19.1893 18.8339 19.6126 18.6687 19.9357 18.3709C20.2588 18.0732 20.4581 17.6649 20.494 17.227L20.5 17.084V9.70698ZM18.75 5.83398H5.25C4.81081 5.834 4.38768 5.99916 4.06461 6.29666C3.74154 6.59417 3.54214 7.00228 3.506 7.43998L3.5 7.58398V8.01298L12 12.487L20.5 8.01198V7.58398C20.5 7.14464 20.3347 6.72137 20.037 6.39828C19.7392 6.07518 19.3309 5.87589 18.893 5.83998L18.75 5.83398Z" fill="#5B89F8"/>
</svg>
