<svg width="24" height="25" viewBox="0 0 24 25" fill="none" xmlns="http://www.w3.org/2000/svg">
<path d="M15.5 1.48828H7.5C6.83696 1.48828 6.20107 1.75167 5.73223 2.22051C5.26339 2.68936 5 3.32524 5 3.98828V20.9883C5 21.6513 5.26339 22.2872 5.73223 22.756C6.20107 23.2249 6.83696 23.4883 7.5 23.4883H15.5C16.163 23.4883 16.7989 23.2249 17.2678 22.756C17.7366 22.2872 18 21.6513 18 20.9883V3.98828C18 3.32524 17.7366 2.68936 17.2678 2.22051C16.7989 1.75167 16.163 1.48828 15.5 1.48828ZM11.5 22.4883C10.67 22.4883 10 21.8183 10 20.9883C10 20.1583 10.67 19.4883 11.5 19.4883C12.33 19.4883 13 20.1583 13 20.9883C13 21.8183 12.33 22.4883 11.5 22.4883ZM16 18.4883H7V4.48828H16V18.4883Z" fill="#5B89F8"/>
</svg>
