<svg width="24" height="24" viewBox="0 0 24 24" fill="none" xmlns="http://www.w3.org/2000/svg">
<path d="M12 11.0667C14.0619 11.0667 15.7333 9.39519 15.7333 7.33332C15.7333 5.27146 14.0619 3.59999 12 3.59999C9.93814 3.59999 8.26667 5.27146 8.26667 7.33332C8.26667 9.39519 9.93814 11.0667 12 11.0667Z" fill="#C4C8CF"/>
<path d="M5 20.4V19.9333C5 18.9432 5.39333 17.9936 6.09347 17.2935C6.7936 16.5933 7.74319 16.2 8.73333 16.2H15.2667C16.2568 16.2 17.2064 16.5933 17.9065 17.2935C18.6067 17.9936 19 18.9432 19 19.9333V20.4" fill="#C4C8CF"/>
<path d="M15.7333 7.33332C15.7333 9.39519 14.0619 11.0667 12 11.0667C9.93814 11.0667 8.26667 9.39519 8.26667 7.33332C8.26667 5.27146 9.93814 3.59999 12 3.59999C14.0619 3.59999 15.7333 5.27146 15.7333 7.33332ZM5 20.4V19.9333C5 18.9432 5.39333 17.9936 6.09347 17.2935C6.7936 16.5933 7.74319 16.2 8.73333 16.2H15.2667C16.2568 16.2 17.2064 16.5933 17.9065 17.2935C18.6067 17.9936 19 18.9432 19 19.9333V20.4H5Z" stroke="#C4C8CF" stroke-width="2.8" stroke-linecap="square" stroke-linejoin="round"/>
</svg>
