<svg width="32" height="32" viewBox="0 0 32 32" fill="none" xmlns="http://www.w3.org/2000/svg">
<g clip-path="url(#clip0_7001_37553)">
<path d="M31.9377 8.37168C32.1575 7.62912 31.9377 7.0826 30.8803 7.0826H27.3813C26.4903 7.0826 26.0804 7.55189 25.8606 8.07466C25.8606 8.07466 24.0784 12.4171 21.5597 15.2329C20.7458 16.0468 20.3716 16.3082 19.926 16.3082C19.7062 16.3082 19.3676 16.0468 19.3676 15.3042V8.37168C19.3676 7.48061 19.1181 7.0826 18.3815 7.0826H12.8806C12.3222 7.0826 11.9896 7.49843 11.9896 7.88456C11.9896 8.72811 13.2489 8.92415 13.3796 11.3003V16.4567C13.3796 17.5854 13.1776 17.7933 12.7321 17.7933C11.544 17.7933 8.65694 13.433 6.94608 8.44297C6.60153 7.47467 6.26293 7.0826 5.36591 7.0826H1.86697C0.868969 7.0826 0.666992 7.55189 0.666992 8.07466C0.666992 9.00137 1.85509 13.6052 6.19758 19.6883C9.0906 23.8407 13.1658 26.0921 16.8726 26.0921C19.1003 26.0921 19.3736 25.5931 19.3736 24.7318C19.3736 20.7635 19.1716 20.3893 20.2884 20.3893C20.8052 20.3893 21.6963 20.6507 23.7755 22.6526C26.1517 25.0288 26.5437 26.0921 27.8744 26.0921H31.3733C32.3713 26.0921 32.8763 25.5931 32.5852 24.607C31.9199 22.5338 27.4229 18.2685 27.221 17.9834C26.7041 17.318 26.8526 17.021 27.221 16.427C27.2269 16.421 31.4981 10.4093 31.9377 8.37168Z" fill="#C4C8CF"/>
</g>
<defs>
<clipPath id="clip0_7001_37553">
<rect width="32" height="32" fill="white"/>
</clipPath>
</defs>
</svg>
