<svg width="32" height="32" viewBox="0 0 32 32" fill="none" xmlns="http://www.w3.org/2000/svg">
<path fill-rule="evenodd" clip-rule="evenodd" d="M25.4475 6.54174C24.2148 5.30845 22.7504 4.33116 21.1384 3.66612C19.5265 3.00109 17.799 2.66145 16.0553 2.66675C8.73743 2.66675 2.7803 8.59412 2.77732 15.881C2.77406 18.2013 3.38569 20.4811 4.54994 22.4881L2.66602 29.3334L9.7047 27.4959C11.653 28.5514 13.834 29.1039 16.0499 29.103H16.0553C23.3725 29.103 29.3291 23.1751 29.3326 15.8888C29.3371 14.151 28.9959 12.4297 28.3289 10.825C27.6619 9.22036 26.6825 7.76436 25.4475 6.54174ZM16.0553 26.8727H16.0505C14.0752 26.8732 12.1357 26.3446 10.4339 25.3417L10.0309 25.1036L5.85411 26.1941L6.96899 22.1411L6.70649 21.7245C5.60195 19.9758 5.01675 17.9493 5.01899 15.881C5.01899 9.82567 9.97196 4.89889 16.0594 4.89889C18.9797 4.89367 21.7824 6.04861 23.8512 8.10967C25.9199 10.1707 27.0853 12.9691 27.091 15.8893C27.0886 21.9453 22.138 26.8727 16.0553 26.8727ZM22.1082 18.6471C21.7767 18.4816 20.144 17.6828 19.8416 17.5727C19.5392 17.4626 19.316 17.4072 19.0952 17.7382C18.8743 18.0691 18.238 18.8096 18.0446 19.0328C17.8511 19.256 17.6577 19.2804 17.3261 19.1149C16.9946 18.9495 15.9249 18.6012 14.6577 17.4762C13.6714 16.6007 13.0059 15.5197 12.8124 15.1893C12.619 14.859 12.7916 14.6798 12.9577 14.5155C13.1071 14.3673 13.2892 14.1298 13.4553 13.937C13.6214 13.7441 13.6767 13.606 13.7868 13.3858C13.897 13.1655 13.8422 12.9727 13.7594 12.8078C13.6767 12.6429 13.013 11.0173 12.7368 10.356C12.4672 9.71198 12.194 9.79948 11.9904 9.78936C11.797 9.77983 11.5737 9.77745 11.3541 9.77745C11.1862 9.78182 11.021 9.82076 10.8688 9.89184C10.7166 9.96291 10.5807 10.0646 10.4696 10.1905C10.1654 10.5215 9.30827 11.3215 9.30827 12.9453C9.30827 14.5691 10.4987 16.1405 10.663 16.3608C10.8273 16.581 13.0023 19.9161 16.3303 21.3465C16.9482 21.6111 17.5797 21.8432 18.2219 22.0417C19.0166 22.2929 19.7398 22.2578 20.3112 22.1727C20.9487 22.078 22.2755 21.3739 22.5511 20.6024C22.8267 19.831 22.8273 19.1703 22.7446 19.0328C22.6618 18.8953 22.4404 18.812 22.1082 18.6471Z" fill="#8F96A3"/>
</svg>
