<svg width="24" height="25" viewBox="0 0 24 25" fill="none" xmlns="http://www.w3.org/2000/svg">
<rect x="2" y="5.35718" width="20" height="14.2857" rx="2" fill="white"/>
<mask id="mask0_7389_33607" style="mask-type:luminance" maskUnits="userSpaceOnUse" x="2" y="5" width="20" height="15">
<rect x="2" y="5.35718" width="20" height="14.2857" rx="2" fill="white"/>
</mask>
<g mask="url(#mask0_7389_33607)">
<path fill-rule="evenodd" clip-rule="evenodd" d="M2 14.881H22V5.35718H2V14.881Z" fill="#E54252"/>
<path fill-rule="evenodd" clip-rule="evenodd" d="M2 19.6429H22V14.881H2V19.6429Z" fill="#5CBE6B"/>
<path d="M4.85742 7.49878L4.38086 8.2146L4.85742 8.92944V10.3562L4.38086 11.071L4.85742 11.7859V13.2126L4.38086 13.9285L4.85742 14.6433V16.0701L4.38086 16.7859L4.85742 17.5007V19.6433H2V5.35718H4.85742V7.49878Z" fill="white"/>
<path d="M2.47656 16.7858L1.52441 18.2145L0.572266 16.7858L1.52441 15.3571L2.47656 16.7858ZM2.47656 13.9283L1.52441 15.3571L0.572266 13.9283L1.52441 12.4996L2.47656 13.9283ZM2.47656 11.0719L1.52441 12.4996L0.572266 11.0719L1.52441 9.64319L2.47656 11.0719ZM2.47656 8.21448L1.52441 9.64319L0.572266 8.21448L1.52441 6.78577L2.47656 8.21448Z" fill="#E54252"/>
<path d="M4.38086 18.2146L3.42871 19.6433L2.47656 18.2146L3.42871 16.7859L4.38086 18.2146ZM4.38086 15.3572L3.42871 16.7859L2.47656 15.3572L3.42871 13.9285L4.38086 15.3572ZM4.38086 12.4998L3.42871 13.9285L2.47656 12.4998L3.42871 11.071L4.38086 12.4998ZM4.38086 9.64331L3.42871 11.071L2.47656 9.64331L3.42871 8.2146L4.38086 9.64331ZM4.38086 6.78589L3.42871 8.2146L2.47656 6.78589L3.42871 5.35718L4.38086 6.78589Z" fill="#E54252"/>
</g>
</svg>
